<svg width="167" height="23" viewBox="0 0 167 23" fill="none" xmlns="http://www.w3.org/2000/svg">
<g clip-path="url(#clip0_247_233)">
<path d="M125.495 0.549305C125.704 0.549322 125.873 0.724216 125.873 0.939974V14.9879C125.873 15.7615 126.071 16.3515 126.465 16.7587C126.869 17.1556 127.419 17.3541 128.178 17.3541C128.937 17.3541 129.508 17.1556 129.892 16.7587C130.286 16.3515 130.483 15.7615 130.483 14.9879V0.939974C130.483 0.724206 130.652 0.549305 130.861 0.549305H137.935C138.144 0.549305 138.313 0.724206 138.313 0.939974V15.5217C138.313 17.9433 137.466 19.7946 135.772 21.0769C134.078 22.3592 131.556 23 128.178 23C124.8 23 122.264 22.3592 120.57 21.0769C118.886 19.7953 118.044 17.9433 118.044 15.5217V0.939974C118.044 0.724206 118.213 0.549305 118.422 0.549305H125.495ZM82.6381 0C84.687 7.50654e-08 86.5184 0.336071 88.1341 1.00733C89.7588 1.67858 91.0447 2.64982 91.9901 3.92199C92.3436 4.38915 92.6378 4.88907 92.8726 5.42162C92.8877 5.44262 92.9011 5.46552 92.9117 5.49021C93.1654 6.07696 93.3237 6.66497 93.4222 7.2425C93.4671 7.49391 93.5022 7.75107 93.5265 8.01396C93.5282 8.03413 93.5286 8.05405 93.5272 8.07354C93.5849 8.7376 93.5838 9.37934 93.5814 9.97977C93.5808 10.189 93.4163 10.3586 93.2138 10.3586H85.5939C85.3852 10.3586 85.2191 10.1779 85.2239 9.96248C85.24 9.22773 85.2133 8.61902 85.158 8.11265C85.1525 8.08975 85.1484 8.06621 85.1467 8.0421C85.1446 8.01406 85.1422 7.98624 85.1398 7.95857C85.0478 7.22737 84.8933 6.72272 84.7227 6.36343C84.652 6.2228 84.5727 6.09064 84.4852 5.9671C84.0616 5.34687 83.4015 5.03659 82.5059 5.03639L82.5038 5.03714C81.3426 5.03744 80.5153 5.58214 80.023 6.67037C79.5404 7.74874 79.2991 9.26549 79.2991 11.4324C79.2991 13.5993 79.5308 15.2224 79.9935 16.3008C80.4662 17.3792 81.2688 17.9184 82.4019 17.9184C83.3771 17.9183 84.0856 17.5621 84.5288 16.8502C84.9249 16.2143 85.1717 15.3949 85.2689 14.3934C85.2692 14.3917 85.2696 14.39 85.2696 14.3883C85.308 13.9999 85.33 13.5552 85.3289 13.0443C85.3282 12.8314 85.4937 12.6554 85.6997 12.6554H93.3199C93.5238 12.6554 93.6886 12.8265 93.6796 13.037C93.6556 13.6019 93.5832 14.5469 93.3872 15.5725C93.3467 15.7959 93.2996 16.0143 93.2461 16.2277C93.2323 16.2845 93.2183 16.3414 93.2038 16.3982C93.1997 16.4146 93.1942 16.4303 93.1881 16.4456C92.9155 17.4266 92.4964 18.2992 91.9303 19.0632C90.9355 20.3963 89.6057 21.3832 87.9419 22.024C86.287 22.6648 84.4011 22.9852 82.2838 22.9852C79.9496 22.9852 77.9257 22.568 76.2117 21.7334C74.4974 20.8894 73.168 19.6125 72.2223 17.9028C71.2869 16.1836 70.8193 14.037 70.8193 11.4621C70.8193 8.88732 71.3116 6.74616 72.2964 5.03639C73.2912 3.32738 74.6701 2.06069 76.4331 1.23628C78.2061 0.411865 80.2743 0 82.6381 0ZM10.0077 0.0609378C11.6627 0.0609395 13.2034 0.289908 14.633 0.747044C16.0611 1.20497 17.2229 1.93248 18.1192 2.92959C18.9379 3.84032 19.3824 4.97209 19.4533 6.32422C19.4646 6.53967 19.294 6.71489 19.0852 6.71489H12.0801C11.8733 6.71489 11.7079 6.54274 11.6838 6.33064C11.6254 5.81819 11.4608 5.42243 11.1899 5.14261C10.8654 4.78626 10.4169 4.60811 9.84579 4.60811C9.33374 4.60811 8.92 4.74016 8.6046 5.00505C8.28917 5.25981 8.13189 5.60048 8.13189 6.02793C8.13189 6.36316 8.22103 6.64376 8.39802 6.86724C8.57577 7.08133 8.8118 7.25952 9.10752 7.40174C9.40249 7.54474 9.83141 7.7229 10.3927 7.93625L13.1255 8.95912L13.2435 9.00526C14.6913 9.55459 15.8826 10.1141 16.8183 10.6838C17.7638 11.2433 18.5127 11.9654 19.0641 12.8508L19.0632 12.8492C19.6244 13.7243 19.9051 14.8129 19.9051 16.1155C19.9051 17.7135 19.477 19.0209 18.62 20.0383C17.7728 21.0566 16.611 21.7989 15.1338 22.267C13.6565 22.7351 12.0167 22.9688 10.0077 22.9688C7.9987 22.9688 6.24539 22.7296 4.74846 22.2514C3.25157 21.7731 2.08443 21.0253 1.2471 20.0079C0.480411 19.067 0.0650359 17.9 0.000416853 16.507C-0.00955995 16.2915 0.16087 16.1163 0.369731 16.1163H7.60387C7.81272 16.1164 7.9793 16.2918 7.99935 16.5065C8.05177 17.0694 8.22316 17.5091 8.51384 17.8261C8.87843 18.2027 9.37606 18.391 10.0061 18.391C10.5281 18.391 10.9419 18.2684 11.2475 18.0246C11.553 17.7698 11.7059 17.3986 11.7059 16.9103C11.7059 16.5547 11.6218 16.2538 11.4546 16.01C11.2867 15.7553 11.0409 15.5365 10.7156 15.3536C10.3911 15.1606 9.95241 14.9669 9.40102 14.7739L6.47613 13.7204C5.11689 13.232 3.99437 12.7233 3.10788 12.1943C2.22214 11.6551 1.51258 10.9737 0.980834 10.1492C0.458936 9.32486 0.198035 8.30195 0.198029 7.0814C0.198029 5.47397 0.626815 4.14625 1.48304 3.09834C2.34986 2.05044 3.51702 1.28232 4.98443 0.793919C6.4624 0.30474 8.13638 0.0609378 10.0077 0.0609378ZM38.2136 0.549305C38.3805 0.549312 38.5277 0.66243 38.5758 0.827598L44.7158 21.9326C44.7886 22.1833 44.607 22.4358 44.3533 22.4358H36.9738C36.8001 22.4358 36.6483 22.3133 36.6068 22.139L35.864 19.0388C35.8221 18.8644 35.6707 18.742 35.497 18.742H30.326C30.1528 18.742 30.0017 18.8635 29.9593 19.0369L29.2004 22.1408C29.158 22.3143 29.0069 22.4358 28.8337 22.4358H21.5425C21.2887 22.4357 21.1069 22.1826 21.1806 21.9317L27.3775 0.826609C27.4258 0.661934 27.5728 0.549329 27.7394 0.549305H38.2136ZM56.8569 0.549305C57.0186 0.549305 57.1627 0.655611 57.2149 0.813781L60.5227 10.8228C60.5779 10.9899 60.8172 10.9489 60.8172 10.7723V0.939974C60.8172 0.724206 60.9868 0.549305 61.1955 0.549305H67.7663C67.975 0.549305 68.1446 0.724206 68.1446 0.939974V22.0451C68.1446 22.2609 67.975 22.4358 67.7663 22.4358H59.2076C59.0476 22.4358 58.9048 22.3316 58.8513 22.1757L55.0129 10.9944C54.9562 10.8289 54.7194 10.871 54.719 11.0466V22.0451C54.719 22.2609 54.5498 22.4358 54.3407 22.4358H47.7696C47.5605 22.4358 47.3913 22.2609 47.3913 22.0451V0.939974C47.3913 0.724206 47.5605 0.549305 47.7696 0.549305H56.8569ZM115.026 0.549305C115.234 0.549305 115.404 0.724206 115.404 0.939974V6.11081C115.404 6.32659 115.234 6.5015 115.026 6.5015H109.962C109.753 6.5015 109.583 6.67648 109.583 6.89227V22.0451C109.583 22.2609 109.414 22.4358 109.205 22.4358H102.132C101.923 22.4358 101.753 22.2609 101.753 22.0451V6.89227C101.753 6.67648 101.584 6.5015 101.375 6.5015H95.9442C95.7351 6.50147 95.5659 6.32659 95.5659 6.11081V0.939974C95.5659 0.72422 95.7351 0.549329 95.9442 0.549305H115.026ZM150.736 0.549305C150.909 0.549318 151.06 0.670367 151.102 0.843387L154.063 12.8277C154.101 12.9844 154.317 12.9846 154.356 12.8279L157.339 0.842769C157.382 0.67009 157.533 0.549325 157.705 0.549305H166.622C166.831 0.549305 167 0.724206 167 0.939974V22.0451C167 22.2609 166.831 22.4358 166.622 22.4358H160.169C159.96 22.4358 159.791 22.2609 159.791 22.0451V11.3115C159.791 11.1245 159.531 11.0954 159.492 11.278L157.182 22.129C157.143 22.3081 156.99 22.4358 156.812 22.4358H151.361C151.184 22.4357 151.031 22.3097 150.992 22.1319L148.639 11.4627C148.599 11.2812 148.341 11.3113 148.341 11.4975V22.0451C148.341 22.2609 148.171 22.4357 147.962 22.4358H141.51C141.301 22.4357 141.131 22.2609 141.131 22.0451V0.939974C141.131 0.724216 141.301 0.549322 141.51 0.549305H150.736ZM33.32 7.39421C33.2288 6.99372 32.6777 6.99207 32.5843 7.39198L31.3301 12.7654C31.2727 13.0112 31.453 13.2477 31.6977 13.2477H34.1755C34.4195 13.2477 34.5994 13.0127 34.5438 12.7675L33.32 7.39421Z" fill="#21395B"/>
</g>
<defs>
<clipPath id="clip0_247_233">
<rect width="167" height="23" fill="white"/>
</clipPath>
</defs>
</svg>
